Coordinates
version=1
nRows=11
nColumns=42
inDegrees=yes

Units are S.I. units (second, meters, Newtons, ...)
If the header above contains a line with 'inDegrees', this indicates whether rotational values are in degrees (yes) or radians (no).

endheader
time	pelvis_tilt	pelvis_list	pelvis_rotation	pelvis_tx	pelvis_ty	pelvis_tz	hip_flexion_r	hip_adduction_r	hip_rotation_r	knee_angle_r	knee_adduction_r	knee_angle_r_beta	ankle_angle_r	subtalar_angle_r	mtp_angle_r	hip_flexion_l	hip_adduction_l	hip_rotation_l	knee_angle_l	knee_adduction_l	knee_angle_l_beta	ankle_angle_l	subtalar_angle_l	mtp_angle_l	lumbar_extension	lumbar_bending	lumbar_rotation	arm_flex_r	arm_add_r	arm_rot_r	elbow_flex_r	pro_sup_r	wrist_flex_r	wrist_dev_r	arm_flex_l	arm_add_l	arm_rot_l	elbow_flex_l	pro_sup_l	wrist_flex_l	wrist_dev_l
      0.00000000	     -9.36544956	      2.29753271	     -1.41702302	     -0.64161134	      0.91793490	      0.34986236	     41.56516340	     -8.67797097	     -1.44658814	     30.54832271	      5.85288448	      0.53316881	     -4.39160290	      2.51652397	     -0.00000000	     -1.01455562	      3.55617899	    -25.13572611	     15.47110851	      4.70865390	      0.27002178	     29.08194993	      5.22048469	    -10.00000000	    -13.97041109	      5.82835700	     -4.55362039	     -2.54619120	     -5.29770761	    -23.52992822	     74.77738836	     90.00000001	      0.00000000	      0.00000000	     13.46749451	    -28.75166037	     -7.91661972	     59.43918422	     90.00000001	      0.00000000	      0.00000000
      0.00500000	     -9.54492491	      2.07285949	     -1.45618434	     -0.63922827	      0.91739569	      0.35000753	     41.70418806	     -8.41901556	     -1.42182331	     30.79004328	      5.85288448	      0.53738763	     -4.10944393	      2.38525517	     -0.00000000	     -0.99807191	      3.33623349	    -25.10189760	     15.39237286	      4.70865390	      0.26864759	     28.82460322	      5.25574458	    -10.00000000	    -13.94324737	      6.14025355	     -4.48955746	     -2.87677570	     -5.27156118	    -23.53362540	     74.58987664	     90.00000001	      0.00000000	      0.00000000	     13.69929413	    -29.11136455	     -8.07819847	     59.47878683	     90.00000001	      0.00000000	      0.00000000
      0.01000000	     -9.80825318	      2.10710104	     -1.33492793	     -0.63664179	      0.91646817	      0.34981255	     42.14817787	     -8.61596828	     -1.63606196	     31.50525715	      5.85288448	      0.54987047	     -3.19155977	      2.22749564	     -0.00000000	     -0.94090160	      3.38078935	    -25.05424228	     15.28904024	      4.70865390	      0.26684409	     28.78430336	      5.21536879	    -10.00000000	    -13.84730071	      6.23929812	     -4.54681638	     -3.36311269	     -5.24923324	    -23.49951601	     74.22130818	     90.00000001	      0.00000000	      0.00000000	     14.00445723	    -29.32311799	     -8.23198718	     59.59720708	     90.00000001	      0.00000000	      0.00000000
      0.01500000	    -10.05150961	      2.01350690	     -1.48129766	     -0.63423139	      0.91581584	      0.35008850	     42.42249266	     -8.48404285	     -1.79280626	     31.70483118	      5.85288448	      0.55335369	     -3.12717860	      2.17635252	     -0.00000000	     -0.95752771	      3.30471125	    -25.16476851	     15.13139038	      4.70865390	      0.26409258	     29.07482413	      5.14086886	    -10.00000000	    -14.02180992	      6.42763433	     -4.61293948	     -3.55905846	     -5.19277479	    -23.54133095	     74.03582270	     90.00000001	      0.00000000	      0.00000000	     14.26869480	    -29.84808871	     -8.41846693	     59.64126215	     90.00000001	      0.00000000	      0.00000000
      0.02000000	    -10.24679498	      2.08044287	     -1.48498670	     -0.63184845	      0.91480908	      0.35033167	     43.11124547	     -8.62598313	     -1.94627401	     32.87137178	      5.85288448	      0.57371367	     -3.10197491	      2.20518576	     -0.00000000	     -0.92491646	      3.36230927	    -25.16944746	     15.13783950	      4.70865390	      0.26420514	     29.33358851	      5.46528162	    -10.00000000	    -13.87630777	      6.26454468	     -4.78596751	     -3.58956212	     -5.13070892	    -23.54262278	     73.33941035	     90.00000001	      0.00000000	      0.00000000	     14.36058540	    -30.43534069	     -8.54154321	     60.03884339	     90.00000001	      0.00000000	      0.00000000
      0.02500000	    -10.40267548	      2.01134104	     -1.60550227	     -0.62897751	      0.91426585	      0.35062929	     43.33149863	     -8.23607796	     -1.11618669	     33.30857064	      5.85288448	      0.58134423	     -2.96349408	      2.31387893	     -0.00000000	     -1.17937606	      3.37280055	    -25.28428481	     14.68250471	      4.70865390	      0.25625805	     29.28107791	      5.50443110	    -10.00000000	    -13.86600865	      6.43306281	     -4.64221301	     -3.80666938	     -5.01502433	    -23.77235955	     72.79534845	     90.00000001	      0.00000000	      0.00000000	     14.59619726	    -30.79247575	     -8.70015481	     59.96186238	     90.00000001	      0.00000000	      0.00000000
      0.03000000	    -10.78276320	      2.02210231	     -1.49243038	     -0.62680790	      0.91326809	      0.35037999	     43.88356908	     -8.34883700	     -1.16376543	     33.85985348	      5.85288448	      0.59096593	     -2.67570345	      2.24869228	     -0.00000000	     -1.00194682	      3.42413073	    -25.16681971	     14.50379388	      4.70865390	      0.25313896	     29.26789044	      5.44627889	    -10.00000000	    -13.74629152	      6.52421545	     -4.88797806	     -3.98920938	     -5.05414699	    -23.93611428	     72.44501341	     90.00000001	      0.00000000	      0.00000000	     14.74234855	    -31.29490945	     -8.77533833	     60.13855047	     90.00000001	      0.00000000	      0.00000000
      0.03500000	    -11.00025465	      1.80162086	     -1.55902125	     -0.62403637	      0.91277496	      0.35059707	     44.04178582	     -8.08093367	     -1.15572732	     34.09081891	      5.85288448	      0.59499703	     -2.44681844	      2.13327631	     -0.00000000	     -1.02986186	      3.18406721	    -25.26705451	     14.38424150	      4.70865390	      0.25105237	     29.29750945	      5.36856360	    -10.00000000	    -13.79760852	      6.79578420	     -4.83081344	     -4.19468013	     -4.81178579	    -23.90077094	     72.26681563	     90.00000001	      0.00000000	      0.00000000	     14.99684030	    -31.76509279	     -8.94426788	     60.17263606	     90.00000001	      0.00000000	      0.00000000
      0.04000000	    -11.26955985	      1.96132033	     -1.48692776	     -0.62134389	      0.91144821	      0.35104143	     44.69390370	     -8.24435359	     -1.04926698	     35.07489992	      5.85288448	      0.61217249	     -2.02590654	      1.94257120	     -0.00000000	     -0.92950428	      3.29572439	    -25.30573425	     14.40377723	      4.70865390	      0.25139334	     29.37459235	      5.67374443	    -10.00000000	    -13.69096963	      6.67307971	     -5.07395602	     -4.37521261	     -4.60900248	    -24.09209171	     71.81710367	     90.00000001	      0.00000000	      0.00000000	     15.07368952	    -32.44489824	     -9.01553908	     60.33474025	     90.00000001	      0.00000000	      0.00000000
      0.04500000	    -11.34381611	      1.83128115	     -1.37158138	     -0.61805874	      0.91084298	      0.35102671	     44.84259054	     -8.22262496	     -1.17034681	     35.71461997	      5.85288448	      0.62333771	     -1.48423011	      1.93578108	     -0.00000000	     -1.17752618	      3.16095587	    -25.34408099	     14.23915016	      4.70865390	      0.24852005	     29.52016668	      5.71968052	    -10.00000000	    -13.73100685	      6.90001152	     -5.22255050	     -4.64217956	     -4.60235609	    -24.15319973	     71.41707221	     90.00000001	      0.00000000	      0.00000000	     15.37052003	    -32.86240767	     -9.04500463	     60.14337810	     90.00000001	      0.00000000	      0.00000000
      0.05000000	    -11.68627831	      1.72345867	     -1.46016855	     -0.61541574	      0.90991397	      0.35138844	     45.31986323	     -8.19757782	     -1.42084602	     36.29698656	      5.85288448	      0.63350192	     -0.66362899	      2.33158367	     -0.00000000	     -1.01312116	      3.02602229	    -25.43872459	     14.22896371	      4.70865390	      0.24834227	     29.57452284	      5.81761290	    -10.00000000	    -13.59004486	      7.03167659	     -5.13965102	     -4.87327476	     -4.75807361	    -24.18023954	     71.16107559	     90.00000001	      0.00000000	      0.00000000	     15.53898577	    -33.36364793	     -9.12419831	     60.36357887	     90.00000001	      0.00000000	      0.00000000
